<?xml version="1.0" standalone="no"?>
<!DOCTYPE svg PUBLIC "-//W3C//DTD SVG 20010904//EN"
 "http://www.w3.org/TR/2001/REC-SVG-20010904/DTD/svg10.dtd">
<svg version="1.0" xmlns="http://www.w3.org/2000/svg"
 width="450.000000pt" height="450.000000pt" viewBox="0 0 450.000000 450.000000"
 preserveAspectRatio="xMidYMid meet">
<metadata>
Created by potrace 1.11, written by Peter Selinger 2001-2013
</metadata>
<g transform="translate(0.000000,450.000000) scale(0.100000,-0.100000)"
fill="#000000" stroke="none">
<path d="M988 3846 c-1 -2 -45 -6 -95 -9 -106 -7 -178 -23 -311 -66 -248 -82
-370 -180 -488 -397 -25 -47 -45 -86 -43 -88 2 -2 15 -6 30 -9 21 -6 34 3 88
59 132 138 323 225 551 249 47 5 270 6 295 1 11 -2 46 -7 78 -10 146 -17 306
-78 421 -160 112 -80 228 -223 289 -358 32 -69 50 -81 147 -101 148 -30 262
-89 353 -184 59 -61 92 -109 136 -202 28 -58 41 -73 67 -81 17 -6 36 -10 40
-8 5 1 35 -2 66 -6 32 -4 61 -8 65 -8 5 0 31 -9 58 -18 181 -62 325 -192 405
-365 88 -187 83 -400 -11 -587 -28 -56 -103 -156 -144 -191 -44 -39 -133 -94
-190 -119 -127 -56 -131 -56 -1015 -57 -448 -1 -1013 -3 -1255 -4 l-440 -2 0
-124 0 -124 1250 -1 c688 0 1276 3 1309 7 66 8 106 17 217 52 75 23 85 24 475
25 376 0 432 2 494 16 14 3 36 8 50 11 52 9 174 67 233 110 209 153 320 366
320 618 0 132 -19 217 -74 331 -45 96 -109 179 -190 249 -85 72 -158 112 -285
154 -105 35 -153 64 -154 95 0 10 -83 110 -120 144 -48 45 -157 111 -226 137
-127 48 -130 51 -179 124 -103 153 -234 271 -383 343 -126 61 -204 79 -367 83
-157 4 -206 -2 -356 -45 -57 -16 -109 -30 -115 -30 -6 0 -35 32 -64 71 -196
264 -505 436 -830 464 -41 4 -80 8 -87 10 -6 2 -13 2 -15 1z m1567 -686 c76
-15 195 -64 263 -107 100 -64 219 -206 265 -315 18 -42 47 -64 97 -72 185 -30
319 -127 408 -294 24 -45 48 -84 53 -88 6 -3 39 -10 75 -14 260 -32 447 -201
500 -450 36 -172 -22 -365 -148 -487 -63 -62 -69 -66 -113 -92 -117 -69 -188
-77 -614 -73 l-135 2 25 27 c77 87 141 200 183 324 33 99 41 158 40 304 0 100
-5 136 -29 220 -47 167 -120 294 -237 413 -135 138 -263 208 -483 265 -40 10
-55 21 -82 57 -120 165 -200 243 -326 317 -42 25 -76 48 -74 50 3 2 33 10 68
17 75 15 180 14 264 -4z"/>
</g>
</svg>
